<?xml version="1.0" encoding="UTF-8" standalone="no"?>
<!DOCTYPE svg PUBLIC "-//W3C//DTD SVG 1.1//EN" "http://www.w3.org/Graphics/SVG/1.1/DTD/svg11.dtd">
<svg width="100%" height="100%" viewBox="0 0 1983 959" version="1.1" xmlns="http://www.w3.org/2000/svg" xmlns:xlink="http://www.w3.org/1999/xlink" xml:space="preserve" xmlns:serif="http://www.serif.com/" style="fill-rule:evenodd;clip-rule:evenodd;stroke-linejoin:round;stroke-miterlimit:2;">
    <g transform="matrix(1,0,0,1,-676.746,-804.654)">
        <g transform="matrix(1,0,0,1,-346.36,77.3456)">
            <g transform="matrix(-1,0,0,1,4071.97,0)">
                <path d="M1883.72,1284.66C1885.96,1292.93 1887.08,1302.85 1887.08,1314.42L1887.08,1668L2131.06,1668L2131.06,777.54L1887.08,777.54L1887.08,1049.57C1874.77,1040.63 1862.46,1033.02 1850.14,1026.74C1821.14,1011.95 1792.14,1004.56 1763.14,1004.56C1700.51,1004.56 1650.93,1027.17 1614.4,1072.4C1577.43,1117.63 1558.95,1178.74 1558.95,1255.71L1558.95,1310.13C1558.82,1312.41 1558.7,1314.71 1558.58,1317.04C1555.97,1357.91 1546.18,1386.62 1529.22,1403.14C1512.69,1419.24 1484.86,1427.28 1445.72,1427.28L1424.39,1427.28C1385.25,1427.28 1357.41,1419.24 1340.88,1403.14C1323.92,1386.62 1314.14,1357.91 1311.53,1317.04C1311.09,1308.63 1310.61,1300.54 1310.09,1292.77L1310.09,1017.61L1066.11,1017.61L1066.11,1419.09C1066.11,1508.52 1130.5,1599.1 1207.15,1645.17C1222.68,1654.34 1240.43,1661.95 1260.38,1668C1299.11,1679.74 1346.16,1685.61 1401.55,1685.61L1468.55,1685.61C1523.94,1685.61 1571,1679.74 1609.72,1668C1629.68,1661.95 1647.42,1654.34 1662.95,1645.17C1738.08,1600.01 1802.93,1512.94 1802.93,1425.28L1802.93,1324.21C1802.93,1296.38 1805.98,1277.68 1812.06,1268.11C1817.72,1258.54 1829.03,1253.76 1845.99,1253.76C1865.54,1253.76 1878.12,1264.06 1883.72,1284.66Z"/>
            </g>
            <g transform="matrix(-1,0,0,1,4071.97,0)">
                <path d="M1188.75,727.309C1221.8,727.309 1250.29,739.051 1274.21,762.536C1298.56,785.586 1310.74,812.984 1310.74,844.732C1310.74,878.654 1299.21,906.488 1276.16,928.233C1253.55,949.978 1224.41,960.851 1188.75,960.851C1153.09,960.851 1123.73,949.978 1100.68,928.233C1078.07,906.488 1066.76,878.654 1066.76,844.732C1066.76,812.984 1078.72,785.586 1102.64,762.536C1126.99,739.051 1155.7,727.309 1188.75,727.309Z"/>
            </g>
            <g id="issue-comment-delete" transform="matrix(1,0,0,1,-43,0)">
                <path d="M1066.11,1419.09L1066.11,1017.61L1310.09,1017.61L1310.09,1292.77C1310.61,1300.54 1311.09,1308.63 1311.53,1317.04C1314.14,1357.91 1323.92,1386.62 1340.88,1403.14C1357.41,1419.24 1385.25,1427.28 1424.39,1427.28L1445.72,1427.28C1484.86,1427.28 1512.69,1419.24 1529.22,1403.14C1546.18,1386.62 1555.97,1357.91 1558.58,1317.04C1562.06,1250.5 1568.14,1203.74 1576.84,1176.78C1585.98,1149.82 1604.24,1123.07 1631.64,1096.54C1679.48,1050.01 1745.8,1026.74 1830.61,1026.74L1904.32,1026.74L1904.32,1283.77C1869.97,1283.77 1846.26,1290.29 1833.22,1303.34C1820.61,1315.95 1812.56,1341.17 1809.08,1379.01C1797.77,1504.69 1749.06,1593.41 1662.95,1645.17C1617.29,1672.13 1552.49,1685.61 1468.55,1685.61L1401.55,1685.61C1346.16,1685.61 1299.11,1679.74 1260.38,1668C1240.43,1661.95 1222.68,1654.34 1207.15,1645.17C1130.5,1599.1 1066.11,1508.52 1066.11,1419.09ZM1188.75,727.309C1221.8,727.309 1250.29,739.051 1274.21,762.536C1298.56,785.586 1310.74,812.984 1310.74,844.732C1310.74,878.654 1299.21,906.488 1276.16,928.233C1253.55,949.978 1224.41,960.851 1188.75,960.851C1153.09,960.851 1123.73,949.978 1100.68,928.233C1078.07,906.488 1066.76,878.654 1066.76,844.732C1066.76,812.984 1078.72,785.586 1102.64,762.536C1126.99,739.051 1155.7,727.309 1188.75,727.309Z"/>
            </g>
        </g>
    </g>
</svg>
